<mxfile host="app.diagrams.net" modified="2024-10-19T16:04:46.393Z" agent="Mozilla/5.0 (Macintosh; Intel Mac OS X 10.15; rv:132.0) Gecko/20100101 Firefox/132.0" etag="k0LpGQ-6_hwGf2C7drP9" version="24.2.5" type="github">
  <diagram name="Page-1" id="90a13364-a465-7bf4-72fc-28e22215d7a0">
    <mxGraphModel dx="1706" dy="787" grid="1" gridSize="10" guides="1" tooltips="1" connect="1" arrows="1" fold="1" page="1" pageScale="1.5" pageWidth="1169" pageHeight="826" background="none" math="0" shadow="0">
      <root>
        <mxCell id="0" style=";html=1;" />
        <mxCell id="1" style=";html=1;" parent="0" />
        <mxCell id="qiFl4kYv5fcQeZ9Xl8Pe-1" value="&lt;b&gt;&lt;font face=&quot;Arial&quot; style=&quot;font-size: 16px;&quot;&gt;Identificación de nuevos estudios a través de las bases de datos y registros&lt;br&gt;&lt;/font&gt;&lt;/b&gt;" style="rounded=1;whiteSpace=wrap;html=1;fillColor=#FFC000;strokeColor=#E3AB00;strokeWidth=2;" vertex="1" parent="1">
          <mxGeometry x="610" y="260" width="630" height="40" as="geometry" />
        </mxCell>
        <mxCell id="qiFl4kYv5fcQeZ9Xl8Pe-5" style="edgeStyle=orthogonalEdgeStyle;rounded=0;orthogonalLoop=1;jettySize=auto;html=1;exitX=1;exitY=0.5;exitDx=0;exitDy=0;entryX=0;entryY=0.5;entryDx=0;entryDy=0;" edge="1" parent="1" source="qiFl4kYv5fcQeZ9Xl8Pe-2" target="qiFl4kYv5fcQeZ9Xl8Pe-4">
          <mxGeometry relative="1" as="geometry" />
        </mxCell>
        <mxCell id="qiFl4kYv5fcQeZ9Xl8Pe-10" style="edgeStyle=orthogonalEdgeStyle;rounded=0;orthogonalLoop=1;jettySize=auto;html=1;exitX=0.5;exitY=1;exitDx=0;exitDy=0;entryX=0.5;entryY=0;entryDx=0;entryDy=0;" edge="1" parent="1" source="qiFl4kYv5fcQeZ9Xl8Pe-2" target="qiFl4kYv5fcQeZ9Xl8Pe-6">
          <mxGeometry relative="1" as="geometry" />
        </mxCell>
        <mxCell id="qiFl4kYv5fcQeZ9Xl8Pe-2" value="&lt;div&gt;&lt;font style=&quot;font-size: 16px;&quot; face=&quot;Arial&quot;&gt;R&lt;/font&gt;&lt;font size=&quot;3&quot;&gt;egistros o citas identificados desde:&lt;/font&gt;&lt;/div&gt;&lt;div&gt;&lt;font size=&quot;3&quot;&gt;&lt;br&gt;&lt;/font&gt;&lt;/div&gt;&lt;div&gt;&lt;font size=&quot;3&quot;&gt;ScienceDirect (n = 22)&lt;/font&gt;&lt;/div&gt;&lt;div&gt;&lt;font size=&quot;3&quot;&gt;EBSCOHost (n = 137)&lt;br&gt;&lt;/font&gt;&lt;/div&gt;" style="rounded=0;whiteSpace=wrap;html=1;" vertex="1" parent="1">
          <mxGeometry x="610" y="330" width="280" height="160" as="geometry" />
        </mxCell>
        <mxCell id="qiFl4kYv5fcQeZ9Xl8Pe-4" value="&lt;div&gt;&lt;font style=&quot;font-size: 16px;&quot; face=&quot;Arial&quot;&gt;R&lt;/font&gt;&lt;font size=&quot;3&quot;&gt;egistros o citas eliminados &lt;i&gt;antes del cribado&lt;/i&gt;:&lt;/font&gt;&lt;/div&gt;&lt;div&gt;&lt;font size=&quot;3&quot;&gt;&lt;br&gt;&lt;/font&gt;&lt;/div&gt;&lt;div&gt;&lt;font size=&quot;3&quot;&gt;Registros o citas duplicadas&lt;br&gt;&lt;/font&gt;&lt;/div&gt;&lt;div&gt;&lt;font size=&quot;3&quot;&gt;ScienceDirect (n = 0)&lt;/font&gt;&lt;/div&gt;&lt;div&gt;&lt;font size=&quot;3&quot;&gt;EBSCOHost (n = 91)&lt;br&gt;&lt;/font&gt;&lt;/div&gt;" style="rounded=0;whiteSpace=wrap;html=1;" vertex="1" parent="1">
          <mxGeometry x="960" y="330" width="280" height="160" as="geometry" />
        </mxCell>
        <mxCell id="qiFl4kYv5fcQeZ9Xl8Pe-11" style="edgeStyle=orthogonalEdgeStyle;rounded=0;orthogonalLoop=1;jettySize=auto;html=1;exitX=0.5;exitY=1;exitDx=0;exitDy=0;entryX=0.5;entryY=0;entryDx=0;entryDy=0;" edge="1" parent="1" source="qiFl4kYv5fcQeZ9Xl8Pe-6" target="qiFl4kYv5fcQeZ9Xl8Pe-7">
          <mxGeometry relative="1" as="geometry" />
        </mxCell>
        <mxCell id="qiFl4kYv5fcQeZ9Xl8Pe-17" style="edgeStyle=orthogonalEdgeStyle;rounded=0;orthogonalLoop=1;jettySize=auto;html=1;exitX=1;exitY=0.5;exitDx=0;exitDy=0;entryX=0;entryY=0.5;entryDx=0;entryDy=0;" edge="1" parent="1" source="qiFl4kYv5fcQeZ9Xl8Pe-6" target="qiFl4kYv5fcQeZ9Xl8Pe-14">
          <mxGeometry relative="1" as="geometry" />
        </mxCell>
        <mxCell id="qiFl4kYv5fcQeZ9Xl8Pe-6" value="&lt;div&gt;&lt;font style=&quot;font-size: 16px;&quot; face=&quot;Arial&quot;&gt;R&lt;/font&gt;&lt;font size=&quot;3&quot;&gt;egistros o citas cribados:&lt;/font&gt;&lt;/div&gt;&lt;div&gt;&lt;font size=&quot;3&quot;&gt;&lt;br&gt;&lt;/font&gt;&lt;/div&gt;&lt;div&gt;&lt;font size=&quot;3&quot;&gt;ScienceDirect (n = 22)&lt;/font&gt;&lt;/div&gt;&lt;div&gt;&lt;font size=&quot;3&quot;&gt;EBSCOHost (n = 46)&lt;br&gt;&lt;/font&gt;&lt;/div&gt;" style="rounded=0;whiteSpace=wrap;html=1;" vertex="1" parent="1">
          <mxGeometry x="620" y="520" width="260" height="100" as="geometry" />
        </mxCell>
        <mxCell id="qiFl4kYv5fcQeZ9Xl8Pe-12" style="edgeStyle=orthogonalEdgeStyle;rounded=0;orthogonalLoop=1;jettySize=auto;html=1;exitX=0.5;exitY=1;exitDx=0;exitDy=0;entryX=0.5;entryY=0;entryDx=0;entryDy=0;" edge="1" parent="1" source="qiFl4kYv5fcQeZ9Xl8Pe-7" target="qiFl4kYv5fcQeZ9Xl8Pe-8">
          <mxGeometry relative="1" as="geometry" />
        </mxCell>
        <mxCell id="qiFl4kYv5fcQeZ9Xl8Pe-18" style="edgeStyle=orthogonalEdgeStyle;rounded=0;orthogonalLoop=1;jettySize=auto;html=1;exitX=1;exitY=0.5;exitDx=0;exitDy=0;entryX=0;entryY=0.5;entryDx=0;entryDy=0;" edge="1" parent="1" source="qiFl4kYv5fcQeZ9Xl8Pe-7" target="qiFl4kYv5fcQeZ9Xl8Pe-15">
          <mxGeometry relative="1" as="geometry" />
        </mxCell>
        <mxCell id="qiFl4kYv5fcQeZ9Xl8Pe-7" value="&lt;div&gt;&lt;font style=&quot;font-size: 16px;&quot; face=&quot;Arial&quot;&gt;Reportes buscados para su rec&lt;/font&gt;&lt;font size=&quot;3&quot;&gt;uperación:&lt;/font&gt;&lt;/div&gt;&lt;div&gt;&lt;font size=&quot;3&quot;&gt;&lt;br&gt;&lt;/font&gt;&lt;/div&gt;&lt;div&gt;&lt;font size=&quot;3&quot;&gt;ScienceDirect (n = 11)&lt;/font&gt;&lt;/div&gt;&lt;div&gt;&lt;font size=&quot;3&quot;&gt;EBSCOHost (n = 25)&lt;br&gt;&lt;/font&gt;&lt;/div&gt;" style="rounded=0;whiteSpace=wrap;html=1;" vertex="1" parent="1">
          <mxGeometry x="620" y="660" width="260" height="100" as="geometry" />
        </mxCell>
        <mxCell id="qiFl4kYv5fcQeZ9Xl8Pe-13" style="edgeStyle=orthogonalEdgeStyle;rounded=0;orthogonalLoop=1;jettySize=auto;html=1;exitX=0.5;exitY=1;exitDx=0;exitDy=0;entryX=0.5;entryY=0;entryDx=0;entryDy=0;" edge="1" parent="1" source="qiFl4kYv5fcQeZ9Xl8Pe-8" target="qiFl4kYv5fcQeZ9Xl8Pe-9">
          <mxGeometry relative="1" as="geometry" />
        </mxCell>
        <mxCell id="qiFl4kYv5fcQeZ9Xl8Pe-19" style="edgeStyle=orthogonalEdgeStyle;rounded=0;orthogonalLoop=1;jettySize=auto;html=1;exitX=1;exitY=0.5;exitDx=0;exitDy=0;entryX=0;entryY=0.5;entryDx=0;entryDy=0;" edge="1" parent="1" source="qiFl4kYv5fcQeZ9Xl8Pe-8" target="qiFl4kYv5fcQeZ9Xl8Pe-16">
          <mxGeometry relative="1" as="geometry" />
        </mxCell>
        <mxCell id="qiFl4kYv5fcQeZ9Xl8Pe-8" value="&lt;div&gt;&lt;font style=&quot;font-size: 16px;&quot; face=&quot;Arial&quot;&gt;Reportes evaluados para decidir su elegibilidad&lt;/font&gt;&lt;font size=&quot;3&quot;&gt;:&lt;/font&gt;&lt;/div&gt;&lt;div&gt;&lt;font size=&quot;3&quot;&gt;&lt;br&gt;&lt;/font&gt;&lt;/div&gt;&lt;div&gt;&lt;font size=&quot;3&quot;&gt;ScienceDirect (n = 11)&lt;/font&gt;&lt;/div&gt;&lt;div&gt;&lt;font size=&quot;3&quot;&gt;EBSCOHost (n = 9)&lt;br&gt;&lt;/font&gt;&lt;/div&gt;" style="rounded=0;whiteSpace=wrap;html=1;" vertex="1" parent="1">
          <mxGeometry x="620" y="800" width="260" height="110" as="geometry" />
        </mxCell>
        <mxCell id="qiFl4kYv5fcQeZ9Xl8Pe-9" value="&lt;div&gt;&lt;font style=&quot;font-size: 16px;&quot; face=&quot;Arial&quot;&gt;Publicaciones incluidas en la investi&lt;/font&gt;&lt;font size=&quot;3&quot;&gt;gación:&lt;/font&gt;&lt;/div&gt;&lt;div&gt;&lt;font size=&quot;3&quot;&gt;&lt;br&gt;&lt;/font&gt;&lt;/div&gt;&lt;div&gt;&lt;font size=&quot;3&quot;&gt;(n = 11)&lt;/font&gt;&lt;/div&gt;" style="rounded=0;whiteSpace=wrap;html=1;" vertex="1" parent="1">
          <mxGeometry x="620" y="950" width="260" height="100" as="geometry" />
        </mxCell>
        <mxCell id="qiFl4kYv5fcQeZ9Xl8Pe-14" value="&lt;div&gt;&lt;font style=&quot;font-size: 16px;&quot; face=&quot;Arial&quot;&gt;R&lt;/font&gt;&lt;font size=&quot;3&quot;&gt;egistros o citas excluidos:&lt;/font&gt;&lt;/div&gt;&lt;div&gt;&lt;font size=&quot;3&quot;&gt;&lt;br&gt;&lt;/font&gt;&lt;/div&gt;&lt;div&gt;&lt;font size=&quot;3&quot;&gt;Tiempo ScienceDirect (n = 11)&lt;/font&gt;&lt;/div&gt;&lt;div&gt;&lt;font size=&quot;3&quot;&gt;Tiempo EBSCOHost (n = 21)&lt;br&gt;&lt;/font&gt;&lt;/div&gt;" style="rounded=0;whiteSpace=wrap;html=1;" vertex="1" parent="1">
          <mxGeometry x="960" y="520" width="260" height="100" as="geometry" />
        </mxCell>
        <mxCell id="qiFl4kYv5fcQeZ9Xl8Pe-15" value="&lt;div&gt;&lt;font style=&quot;font-size: 16px;&quot; face=&quot;Arial&quot;&gt;Reportes n&lt;/font&gt;&lt;font size=&quot;3&quot;&gt;o recuperados:&lt;/font&gt;&lt;/div&gt;&lt;div&gt;&lt;font size=&quot;3&quot;&gt;&lt;br&gt;&lt;/font&gt;&lt;/div&gt;&lt;div&gt;&lt;font size=&quot;3&quot;&gt;ScienceDirect (n = 0)&lt;/font&gt;&lt;/div&gt;&lt;div&gt;&lt;font size=&quot;3&quot;&gt;EBSCOHost (n = 16)&lt;br&gt;&lt;/font&gt;&lt;/div&gt;" style="rounded=0;whiteSpace=wrap;html=1;" vertex="1" parent="1">
          <mxGeometry x="960" y="660" width="260" height="100" as="geometry" />
        </mxCell>
        <mxCell id="qiFl4kYv5fcQeZ9Xl8Pe-16" value="&lt;div&gt;&lt;font style=&quot;font-size: 16px;&quot; face=&quot;Arial&quot;&gt;Reportes exclui&lt;/font&gt;&lt;font size=&quot;3&quot;&gt;dos:&lt;/font&gt;&lt;/div&gt;&lt;div&gt;&lt;font size=&quot;3&quot;&gt;&lt;br&gt;&lt;/font&gt;&lt;/div&gt;&lt;div&gt;&lt;font size=&quot;3&quot;&gt;Enfoque Social (n = 1)&lt;/font&gt;&lt;/div&gt;&lt;div&gt;&lt;font size=&quot;3&quot;&gt;Enfoque Político/Económico (n = 7)&lt;/font&gt;&lt;/div&gt;&lt;div&gt;&lt;font size=&quot;3&quot;&gt;Enfoque Informativo/Prensa (n = 1)&lt;br&gt;&lt;/font&gt;&lt;/div&gt;" style="rounded=0;whiteSpace=wrap;html=1;" vertex="1" parent="1">
          <mxGeometry x="960" y="785" width="280" height="140" as="geometry" />
        </mxCell>
        <mxCell id="qiFl4kYv5fcQeZ9Xl8Pe-20" value="&lt;b&gt;&lt;font face=&quot;Arial&quot; style=&quot;font-size: 16px;&quot;&gt;Identificación&lt;br&gt;&lt;/font&gt;&lt;/b&gt;" style="rounded=1;whiteSpace=wrap;html=1;fillColor=#9DC3E6;strokeColor=#688199;strokeWidth=2;rotation=-90;" vertex="1" parent="1">
          <mxGeometry x="430" y="390" width="160" height="40" as="geometry" />
        </mxCell>
        <mxCell id="qiFl4kYv5fcQeZ9Xl8Pe-22" value="&lt;b&gt;&lt;font face=&quot;Arial&quot; style=&quot;font-size: 16px;&quot;&gt;Cribado&lt;/font&gt;&lt;/b&gt;" style="rounded=1;whiteSpace=wrap;html=1;fillColor=#9DC3E6;strokeColor=#688199;strokeWidth=2;rotation=-90;" vertex="1" parent="1">
          <mxGeometry x="320.16" y="695.86" width="379.7" height="40" as="geometry" />
        </mxCell>
        <mxCell id="qiFl4kYv5fcQeZ9Xl8Pe-23" value="&lt;b&gt;&lt;font face=&quot;Arial&quot; style=&quot;font-size: 16px;&quot;&gt;Incluidos&lt;br&gt;&lt;/font&gt;&lt;/b&gt;" style="rounded=1;whiteSpace=wrap;html=1;fillColor=#9DC3E6;strokeColor=#688199;strokeWidth=2;rotation=-90;" vertex="1" parent="1">
          <mxGeometry x="414.38" y="1024.38" width="191.28" height="40" as="geometry" />
        </mxCell>
      </root>
    </mxGraphModel>
  </diagram>
</mxfile>
